{
	"asset":{
		"generator":"Khronos glTF Blender I/O v4.0.44",
		"version":"2.0"
	},
	"scene":0,
	"scenes":[
		{
			"name":"Scene",
			"nodes":[
				0,
				1,
				2,
				3
			]
		}
	],
	"nodes":[
		{
			"mesh":0,
			"name":"Sphere"
		},
		{
			"mesh":1,
			"name":"Sphere.002",
			"scale":[
				0.1676519513130188,
				0.1676519513130188,
				0.1676519513130188
			],
			"translation":[
				0.5443743467330933,
				0.3613591492176056,
				-0.7055405974388123
			]
		},
		{
			"mesh":2,
			"name":"Sphere.003",
			"scale":[
				0.1676519513130188,
				0.1676519513130188,
				0.1676519513130188
			],
			"translation":[
				0.5443743467330933,
				0.3613591492176056,
				0.7014641761779785
			]
		},
		{
			"mesh":3,
			"name":"Sphere.001",
			"scale":[
				0.3667519688606262,
				0.3667519688606262,
				0.3667519688606262
			],
			"translation":[
				0,
				1.213759183883667,
				0
			]
		}
	],
	"materials":[
		{
			"doubleSided":true,
			"name":"Material.001",
			"pbrMetallicRoughness":{
				"baseColorTexture": {
					"index": 0
				},
				"metallicFactor":0,
				"roughnessFactor":0.5
			}
		}
	],
	"meshes":[
		{
			"name":"Sphere",
			"primitives":[
				{
					"attributes":{
						"POSITION":0,
						"NORMAL":1,
						"TEXCOORD_0":2
					},
					"indices":3,
					"material":0
				}
			]
		},
		{
			"name":"Sphere.002",
			"primitives":[
				{
					"attributes":{
						"POSITION":4,
						"NORMAL":5,
						"TEXCOORD_0":6
					},
					"indices":7,
					"material":0
				}
			]
		},
		{
			"name":"Sphere.003",
			"primitives":[
				{
					"attributes":{
						"POSITION":8,
						"NORMAL":9,
						"TEXCOORD_0":10
					},
					"indices":11,
					"material":0
				}
			]
		},
		{
			"name":"Sphere.004",
			"primitives":[
				{
					"attributes":{
						"POSITION":12,
						"NORMAL":13,
						"TEXCOORD_0":14
					},
					"indices":3,
					"material":0
				}
			]
		}
	],
	"accessors":[
		{
			"bufferView":0,
			"componentType":5126,
			"count":559,
			"max":[
				0.9999997019767761,
				1,
				0.9999993443489075
			],
			"min":[
				-0.9999990463256836,
				-1,
				-1
			],
			"type":"VEC3"
		},
		{
			"bufferView":1,
			"componentType":5126,
			"count":559,
			"type":"VEC3"
		},
		{
			"bufferView":2,
			"componentType":5126,
			"count":559,
			"type":"VEC2"
		},
		{
			"bufferView":3,
			"componentType":5123,
			"count":2880,
			"type":"SCALAR"
		},
		{
			"bufferView":4,
			"componentType":5126,
			"count":632,
			"max":[
				0.9999997019767761,
				1.0081284046173096,
				1.005800485610962
			],
			"min":[
				-0.9999990463256836,
				-1,
				-1
			],
			"type":"VEC3"
		},
		{
			"bufferView":5,
			"componentType":5126,
			"count":632,
			"type":"VEC3"
		},
		{
			"bufferView":6,
			"componentType":5126,
			"count":632,
			"type":"VEC2"
		},
		{
			"bufferView":7,
			"componentType":5123,
			"count":2880,
			"type":"SCALAR"
		},
		{
			"bufferView":8,
			"componentType":5126,
			"count":559,
			"max":[
				0.9999997019767761,
				1,
				0.9999993443489075
			],
			"min":[
				-0.9999990463256836,
				-1,
				-1
			],
			"type":"VEC3"
		},
		{
			"bufferView":9,
			"componentType":5126,
			"count":559,
			"type":"VEC3"
		},
		{
			"bufferView":10,
			"componentType":5126,
			"count":559,
			"type":"VEC2"
		},
		{
			"bufferView":11,
			"componentType":5123,
			"count":2880,
			"type":"SCALAR"
		},
		{
			"bufferView":12,
			"componentType":5126,
			"count":559,
			"max":[
				0.9999997019767761,
				1,
				0.9999993443489075
			],
			"min":[
				-0.9999990463256836,
				-1,
				-1
			],
			"type":"VEC3"
		},
		{
			"bufferView":13,
			"componentType":5126,
			"count":559,
			"type":"VEC3"
		},
		{
			"bufferView":14,
			"componentType":5126,
			"count":559,
			"type":"VEC2"
		}
	],
	"bufferViews":[
		{
			"buffer":0,
			"byteLength":6708,
			"byteOffset":0,
			"target":34962
		},
		{
			"buffer":0,
			"byteLength":6708,
			"byteOffset":6708,
			"target":34962
		},
		{
			"buffer":0,
			"byteLength":4472,
			"byteOffset":13416,
			"target":34962
		},
		{
			"buffer":0,
			"byteLength":5760,
			"byteOffset":17888,
			"target":34963
		},
		{
			"buffer":0,
			"byteLength":7584,
			"byteOffset":23648,
			"target":34962
		},
		{
			"buffer":0,
			"byteLength":7584,
			"byteOffset":31232,
			"target":34962
		},
		{
			"buffer":0,
			"byteLength":5056,
			"byteOffset":38816,
			"target":34962
		},
		{
			"buffer":0,
			"byteLength":5760,
			"byteOffset":43872,
			"target":34963
		},
		{
			"buffer":0,
			"byteLength":6708,
			"byteOffset":49632,
			"target":34962
		},
		{
			"buffer":0,
			"byteLength":6708,
			"byteOffset":56340,
			"target":34962
		},
		{
			"buffer":0,
			"byteLength":4472,
			"byteOffset":63048,
			"target":34962
		},
		{
			"buffer":0,
			"byteLength":5760,
			"byteOffset":67520,
			"target":34963
		},
		{
			"buffer":0,
			"byteLength":6708,
			"byteOffset":73280,
			"target":34962
		},
		{
			"buffer":0,
			"byteLength":6708,
			"byteOffset":79988,
			"target":34962
		},
		{
			"buffer":0,
			"byteLength":4472,
			"byteOffset":86696,
			"target":34962
		}
	],
	"buffers":[
		{
			"byteLength":91168,
			"uri":"adulte.bin"
		}
	],
	"samplers": [
		{
			"magFilter": 9729,
			"minFilter": 9987,
			"wrapS": 10497,
			"wrapT": 10497
		}
  	],
	"images": [
		{
			"uri": "Clown_blue.png"
		}
	],
	"textures": [
		{
			"source": 0,
			"sampler": 0
		}
	]
}
