{
	"asset":{
		"generator":"Khronos glTF Blender I/O v4.0.44",
		"version":"2.0"
	},
	"scene":0,
	"scenes":[
		{
			"name":"Scene",
			"nodes":[
				0
			]
		}
	],
	"nodes":[
		{
			"mesh":0,
			"name":"Plane",
			"rotation":[
				0,
				0,
				-1,
				4.371138828673793e-08
			]
		}
	],
	"materials":[
		{
			"doubleSided":true,
			"name":"Material.001",
			"pbrMetallicRoughness":{
				"roughnessFactor":0.18503937125205994
			}
		}
	],
	"meshes":[
		{
			"name":"Plane",
			"primitives":[
				{
					"attributes":{
						"POSITION":0,
						"NORMAL":1,
						"TEXCOORD_0":2
					},
					"indices":3,
					"material":0
				}
			]
		}
	],
	"accessors":[
		{
			"bufferView":0,
			"componentType":5126,
			"count":2303,
			"max":[
				0.9857581853866577,
				0.17056754231452942,
				0.9857572317123413
			],
			"min":[
				-0.9857575297355652,
				-0.27516812086105347,
				-0.9857591390609741
			],
			"type":"VEC3"
		},
		{
			"bufferView":1,
			"componentType":5126,
			"count":2303,
			"type":"VEC3"
		},
		{
			"bufferView":2,
			"componentType":5126,
			"count":2303,
			"type":"VEC2"
		},
		{
			"bufferView":3,
			"componentType":5123,
			"count":2880,
			"type":"SCALAR"
		}
	],
	"bufferViews":[
		{
			"buffer":0,
			"byteLength":27636,
			"byteOffset":0,
			"target":34962
		},
		{
			"buffer":0,
			"byteLength":27636,
			"byteOffset":27636,
			"target":34962
		},
		{
			"buffer":0,
			"byteLength":18424,
			"byteOffset":55272,
			"target":34962
		},
		{
			"buffer":0,
			"byteLength":5760,
			"byteOffset":73696,
			"target":34963
		}
	],
	"buffers":[
		{
			"byteLength":79456,
			"uri":"bol.bin"
		}
	]
}
