{
	"asset":{
		"generator":"Khronos glTF Blender I/O v4.0.44",
		"version":"2.0"
	},
	"scene":0,
	"scenes":[
		{
			"name":"Scene",
			"nodes":[
				0
			]
		}
	],
	"nodes":[
		{
			"mesh":0,
			"name":"Clown",
			"scale":[
				0.12886641919612885,
				0.12886641919612885,
				0.12886641919612885
			],
			"translation":[
				0,
				0.8371403217315674,
				0.6274861693382263
			]
		}
	],
	"materials":[
		{
			"doubleSided":false,
			"name":"Clown",
			"pbrMetallicRoughness":{
				"baseColorTexture": {
         			"index": 0
       		 	},
				"metallicFactor":0,
				"roughnessFactor":0.5
			}
		}
	],
	"meshes":[
		{
			"name":"Sphere.005",
			"primitives":[
				{
					"attributes":{
						"POSITION":0,
						"NORMAL":1,
						"TEXCOORD_0":2
					},
					"indices":3,
					"material":0
				}
			]
		}
	],
	"accessors":[
		{
			"bufferView":0,
			"componentType":5126,
			"count":3354,
			"max":[
				7.7599711418151855,
				7.268860816955566,
				2.8906922340393066
			],
			"min":[
				-7.759965896606445,
				-14.256160736083984,
				-12.629249572753906
			],
			"type":"VEC3"
		},
		{
			"bufferView":1,
			"componentType":5126,
			"count":3354,
			"type":"VEC3"
		},
		{
			"bufferView":2,
			"componentType":5126,
			"count":3354,
			"type":"VEC2"
		},
		{
			"bufferView":3,
			"componentType":5123,
			"count":17280,
			"type":"SCALAR"
		}
	],
	"bufferViews":[
		{
			"buffer":0,
			"byteLength":40248,
			"byteOffset":0,
			"target":34962
		},
		{
			"buffer":0,
			"byteLength":40248,
			"byteOffset":40248,
			"target":34962
		},
		{
			"buffer":0,
			"byteLength":26832,
			"byteOffset":80496,
			"target":34962
		},
		{
			"buffer":0,
			"byteLength":34560,
			"byteOffset":107328,
			"target":34963
		}
	],
	"buffers":[
		{
			"byteLength":141888,
			"uri":"clown.bin"
		}
	],
	"samplers": [
		{
			"magFilter": 9729,
			"minFilter": 9987,
			"wrapS": 10497,
			"wrapT": 10497
		}
  	],
	"images": [
		{
			"uri": "Clown_texture_yellowpinkdot.png"
		}
	],
	"textures": [
		{
			"source": 0,
			"sampler": 0
		}
	]
}
