{
	"asset":{
		"generator":"Khronos glTF Blender I/O v4.0.44",
		"version":"2.0"
	},
	"scene":0,
	"scenes":[
		{
			"name":"Scene",
			"nodes":[
				0
			]
		}
	],
	"nodes":[
		{
			"mesh":0,
			"name":"Sphere.003",
			"scale":[
				0.24762123823165894,
				0.24762123823165894,
				0.24762123823165894
			],
			"translation":[
				0.1985751986503601,
				0.6507726907730103,
				-0.8550750017166138
			]
		}
	],
	"materials":[
		{
			"doubleSided":true,
			"name":"Material",
			"pbrMetallicRoughness":{
				"baseColorTexture": {
         			"index": 0
       		 	},
				"metallicFactor":0,
				"roughnessFactor":0.5
			}
		}
	],
	"meshes":[
		{
			"name":"Sphere.003",
			"primitives":[
				{
					"attributes":{
						"POSITION":0,
						"NORMAL":1,
						"TEXCOORD_0":2
					},
					"indices":3,
					"material":0
				}
			]
		}
	],
	"accessors":[
		{
			"bufferView":0,
			"componentType":5126,
			"count":2620,
			"max":[
				3.2364933490753174,
				7.7278666496276855,
				7.9748945236206055
			],
			"min":[
				-4.840353012084961,
				-6.666522979736328,
				-1
			],
			"type":"VEC3"
		},
		{
			"bufferView":1,
			"componentType":5126,
			"count":2620,
			"type":"VEC3"
		},
		{
			"bufferView":2,
			"componentType":5126,
			"count":2620,
			"type":"VEC2"
		},
		{
			"bufferView":3,
			"componentType":5123,
			"count":12264,
			"type":"SCALAR"
		}
	],
	"bufferViews":[
		{
			"buffer":0,
			"byteLength":31440,
			"byteOffset":0,
			"target":34962
		},
		{
			"buffer":0,
			"byteLength":31440,
			"byteOffset":31440,
			"target":34962
		},
		{
			"buffer":0,
			"byteLength":20960,
			"byteOffset":62880,
			"target":34962
		},
		{
			"buffer":0,
			"byteLength":24528,
			"byteOffset":83840,
			"target":34963
		}
	],
	"buffers":[
		{
			"byteLength":108368,
			"uri":"ringmaster.bin"
		}
	],
	"samplers": [
		{
			"magFilter": 9729,
			"minFilter": 9987,
			"wrapS": 10497,
			"wrapT": 10497
		}
  	],
	"images": [
		{
			"uri": "ringmaster.png"
		}
	],
	"textures": [
		{
			"source": 0,
			"sampler": 0
		}
	]
}
