{
	"asset":{
		"generator":"Khronos glTF Blender I/O v4.0.44",
		"version":"2.0"
	},
	"scene":0,
	"scenes":[
		{
			"name":"Scene",
			"nodes":[
				0
			]
		}
	],
	"nodes":[
		{
			"mesh":0,
			"name":"Plane",
			"rotation":[
				0.19956257939338684,
				0.003055295441299677,
				-0.05127269774675369,
				0.9785379767417908
			],
			"scale":[
				6.114406108856201,
				6.114406585693359,
				6.114407062530518
			],
			"translation":[
				0.3364684581756592,
				2.230638027191162,
				-4.913939476013184
			]
		}
	],
	"materials":[
		{
			"doubleSided":true,
			"name":"Material.001",
			"pbrMetallicRoughness":{
				"baseColorFactor":[
					0.800000011920929,
					0.800000011920929,
					0.800000011920929,
					1
				],
				"roughnessFactor":0.1755101978778839
			}
		}
	],
	"meshes":[
		{
			"name":"Plane",
			"primitives":[
				{
					"attributes":{
						"POSITION":0,
						"NORMAL":1,
						"TEXCOORD_0":2
					},
					"indices":3,
					"material":0
				}
			]
		}
	],
	"accessors":[
		{
			"bufferView":0,
			"componentType":5126,
			"count":3712,
			"max":[
				0.38535162806510925,
				0.38359132409095764,
				1.483396053314209
			],
			"min":[
				-0.38029107451438904,
				-0.38205140829086304,
				-0.019614219665527344
			],
			"type":"VEC3"
		},
		{
			"bufferView":1,
			"componentType":5126,
			"count":3712,
			"type":"VEC3"
		},
		{
			"bufferView":2,
			"componentType":5126,
			"count":3712,
			"type":"VEC2"
		},
		{
			"bufferView":3,
			"componentType":5123,
			"count":10368,
			"type":"SCALAR"
		}
	],
	"bufferViews":[
		{
			"buffer":0,
			"byteLength":44544,
			"byteOffset":0,
			"target":34962
		},
		{
			"buffer":0,
			"byteLength":44544,
			"byteOffset":44544,
			"target":34962
		},
		{
			"buffer":0,
			"byteLength":29696,
			"byteOffset":89088,
			"target":34962
		},
		{
			"buffer":0,
			"byteLength":20736,
			"byteOffset":118784,
			"target":34963
		}
	],
	"buffers":[
		{
			"byteLength":139520,
			"uri":"tube.bin"
		}
	]
}
