{
	"asset":{
		"generator":"Khronos glTF Blender I/O v4.0.44",
		"version":"2.0"
	},
	"scene":0,
	"scenes":[
		{
			"name":"Scene",
			"nodes":[
				0,
				1,
				2,
				3,
				4,
				5,
				6,
				7,
				8
			]
		}
	],
	"nodes":[
		{
			"mesh":0,
			"name":"Ground",
			"scale":[
				7.9493255615234375,
				7.9493255615234375,
				7.9493255615234375
			],
			"translation":[
				0,
				-2.8230552673339844,
				0
			]
		},
		{
			"mesh":1,
			"name":"WallRight",
			"scale":[
				7.946430206298828,
				7.946430206298828,
				7.946430206298828
			],
			"translation":[
				40.331146240234375,
				18.77606773376465,
				0
			]
		},
		{
			"mesh":2,
			"name":"WallLeft",
			"scale":[
				7.946430206298828,
				7.946430206298828,
				7.946430206298828
			],
			"translation":[
				-39.69232940673828,
				19.10713005065918,
				-0.3998947739601135
			]
		},
		{
			"mesh":3,
			"name":"WallFront",
			"rotation":[
				0,
				0.7071068286895752,
				0,
				0.7071067094802856
			],
			"scale":[
				7.946430206298828,
				7.946430206298828,
				7.946430206298828
			],
			"translation":[
				0,
				18.77606773376465,
				-40.331146240234375
			]
		},
		{
			"mesh":4,
			"name":"WallBack",
			"rotation":[
				0,
				-0.7071068286895752,
				0,
				0.7071067094802856
			],
			"scale":[
				7.946430206298828,
				7.946430206298828,
				7.946430206298828
			],
			"translation":[
				0,
				18.77606773376465,
				40.331146240234375
			]
		},
		{
			"mesh":5,
			"name":"Ceiling",
			"scale":[
				7.9493255615234375,
				7.9493255615234375,
				7.9493255615234375
			],
			"translation":[
				0,
				47.805782318115234,
				0
			]
		},
		{
			"mesh":6,
			"name":"OutsideGround",
			"scale":[
				92.40840148925781,
				92.40840148925781,
				92.40840148925781
			],
			"translation":[
				6.103515625e-05,
				-23.257129669189453,
				3.0517578125e-05
			]
		},
		{
			"mesh":7,
			"name":"Limit",
			"translation":[
				2.6815738677978516,
				-2.1127538681030273,
				26.75963592529297
			]
		},
		{
			"mesh":8,
			"name":"Lamp",
			"scale":[
				2,
				2,
				2
			],
			"translation":[
				0,
				42.16667938232422,
				0
			]
		}
	],
	"materials":[
		{
			"doubleSided":true,
			"name":"GroundMaterial",
			"pbrMetallicRoughness":{
				"baseColorTexture":{
					"index":0
				},
				"metallicFactor":0,
				"roughnessFactor":0.5
			}
		},
		{
			"doubleSided":true,
			"name":"WallRightMaterial",
			"pbrMetallicRoughness":{
				"baseColorTexture":{
					"index":1
				},
				"metallicFactor":0,
				"roughnessFactor":0.5
			}
		},
		{
			"doubleSided":true,
			"name":"WallLeftMaterial",
			"pbrMetallicRoughness":{
				"baseColorTexture":{
					"index":2
				},
				"metallicFactor":0,
				"roughnessFactor":0.5
			}
		},
		{
			"doubleSided":true,
			"name":"WallFrontMaterial",
			"pbrMetallicRoughness":{
				"baseColorTexture":{
					"index":3
				},
				"metallicFactor":0,
				"roughnessFactor":0.5
			}
		},
		{
			"doubleSided":true,
			"name":"WallBackMaterial",
			"pbrMetallicRoughness":{
				"baseColorTexture":{
					"index":4
				},
				"metallicFactor":0,
				"roughnessFactor":0.5
			}
		},
		{
			"doubleSided":true,
			"name":"CeilingMaterial",
			"pbrMetallicRoughness":{
				"baseColorTexture":{
					"index":5
				},
				"metallicFactor":0,
				"roughnessFactor":0.5
			}
		},
		{
			"doubleSided":true,
			"name":"OutsideGroundMaterial",
			"pbrMetallicRoughness":{
				"baseColorTexture":{
					"index":6
				},
				"metallicFactor":0,
				"roughnessFactor":0.5
			}
		},
		{
			"doubleSided":true,
			"name":"LimitMaterial",
			"pbrMetallicRoughness":{
				"baseColorTexture":{
					"index":7
				},
				"metallicFactor":0,
				"roughnessFactor":0.5
			}
		},
		{
			"doubleSided":true,
			"name":"LampMaterial",
			"pbrMetallicRoughness":{
				"baseColorFactor":[
					1,
					1,
					0,
					1
				],
				"metallicFactor":0,
				"roughnessFactor":0.5
			}
		}
	],
	"meshes":[
		{
			"name":"Cube.001",
			"primitives":[
				{
					"attributes":{
						"POSITION":0,
						"NORMAL":1,
						"TEXCOORD_0":2
					},
					"indices":3,
					"material":0
				}
			]
		},
		{
			"name":"Cube.002",
			"primitives":[
				{
					"attributes":{
						"POSITION":4,
						"NORMAL":5,
						"TEXCOORD_0":6
					},
					"indices":3,
					"material":1
				}
			]
		},
		{
			"name":"Cube.008",
			"primitives":[
				{
					"attributes":{
						"POSITION":7,
						"NORMAL":8,
						"TEXCOORD_0":9
					},
					"indices":3,
					"material":2
				}
			]
		},
		{
			"name":"Cube.009",
			"primitives":[
				{
					"attributes":{
						"POSITION":10,
						"NORMAL":11,
						"TEXCOORD_0":12
					},
					"indices":3,
					"material":3
				}
			]
		},
		{
			"name":"Cube.010",
			"primitives":[
				{
					"attributes":{
						"POSITION":13,
						"NORMAL":14,
						"TEXCOORD_0":15
					},
					"indices":3,
					"material":4
				}
			]
		},
		{
			"name":"Cube.011",
			"primitives":[
				{
					"attributes":{
						"POSITION":16,
						"NORMAL":17,
						"TEXCOORD_0":18
					},
					"indices":3,
					"material":5
				}
			]
		},
		{
			"name":"Cube.012",
			"primitives":[
				{
					"attributes":{
						"POSITION":19,
						"NORMAL":20,
						"TEXCOORD_0":21
					},
					"indices":3,
					"material":6
				}
			]
		},
		{
			"name":"Limit",
			"primitives":[
				{
					"attributes":{
						"POSITION":22,
						"NORMAL":23,
						"TEXCOORD_0":24
					},
					"indices":25,
					"material":7
				}
			]
		},
		{
			"name":"Lamp",
			"primitives":[
				{
					"attributes":{
						"POSITION":26,
						"NORMAL":27,
						"TEXCOORD_0":28
					},
					"indices":29,
					"material":8
				}
			]
		}
	],
	"textures":[
		{
			"sampler":0,
			"source":0
		},
		{
			"sampler":0,
			"source":1
		},
		{
			"sampler":0,
			"source":2
		},
		{
			"sampler":0,
			"source":3
		},
		{
			"sampler":0,
			"source":4
		},
		{
			"sampler":0,
			"source":5
		},
		{
			"sampler":0,
			"source":6
		},
		{
			"sampler":0,
			"source":7
		}
	],
	"images":[
		{
			"mimeType":"image/png",
			"name":"ground",
			"uri":"ground.png"
		},
		{
			"mimeType":"image/png",
			"name":"wall_right",
			"uri":"wall_right.png"
		},
		{
			"mimeType":"image/png",
			"name":"wall_left",
			"uri":"wall_left.png"
		},
		{
			"mimeType":"image/png",
			"name":"wall_front",
			"uri":"wall_front.png"
		},
		{
			"mimeType":"image/png",
			"name":"wall_back",
			"uri":"wall_back.png"
		},
		{
			"mimeType":"image/png",
			"name":"ceiling",
			"uri":"ceiling.png"
		},
		{
			"mimeType":"image/png",
			"name":"outside_ground",
			"uri":"outside_ground.png"
		},
		{
			"mimeType":"image/png",
			"name":"limit",
			"uri":"limit.png"
		}
	],
	"accessors":[
		{
			"bufferView":0,
			"componentType":5126,
			"count":24,
			"max":[
				5.378944396972656,
				0.2386477291584015,
				5.378944396972656
			],
			"min":[
				-5.378944396972656,
				-0.2386476695537567,
				-5.378944396972656
			],
			"type":"VEC3"
		},
		{
			"bufferView":1,
			"componentType":5126,
			"count":24,
			"type":"VEC3"
		},
		{
			"bufferView":2,
			"componentType":5126,
			"count":24,
			"type":"VEC2"
		},
		{
			"bufferView":3,
			"componentType":5123,
			"count":36,
			"type":"SCALAR"
		},
		{
			"bufferView":4,
			"componentType":5126,
			"count":24,
			"max":[
				0.30356502532958984,
				2.954767942428589,
				5.378944396972656
			],
			"min":[
				-0.30356502532958984,
				-2.954768180847168,
				-5.378944396972656
			],
			"type":"VEC3"
		},
		{
			"bufferView":5,
			"componentType":5126,
			"count":24,
			"type":"VEC3"
		},
		{
			"bufferView":6,
			"componentType":5126,
			"count":24,
			"type":"VEC2"
		},
		{
			"bufferView":7,
			"componentType":5126,
			"count":24,
			"max":[
				0.30356502532958984,
				2.954767942428589,
				5.378944396972656
			],
			"min":[
				-0.30356502532958984,
				-2.954768180847168,
				-5.378944396972656
			],
			"type":"VEC3"
		},
		{
			"bufferView":8,
			"componentType":5126,
			"count":24,
			"type":"VEC3"
		},
		{
			"bufferView":9,
			"componentType":5126,
			"count":24,
			"type":"VEC2"
		},
		{
			"bufferView":10,
			"componentType":5126,
			"count":24,
			"max":[
				0.30356502532958984,
				2.954767942428589,
				5.378944396972656
			],
			"min":[
				-0.30356502532958984,
				-2.954768180847168,
				-5.378944396972656
			],
			"type":"VEC3"
		},
		{
			"bufferView":11,
			"componentType":5126,
			"count":24,
			"type":"VEC3"
		},
		{
			"bufferView":12,
			"componentType":5126,
			"count":24,
			"type":"VEC2"
		},
		{
			"bufferView":13,
			"componentType":5126,
			"count":24,
			"max":[
				0.30356502532958984,
				2.954767942428589,
				5.378944396972656
			],
			"min":[
				-0.30356502532958984,
				-2.954768180847168,
				-5.378944396972656
			],
			"type":"VEC3"
		},
		{
			"bufferView":14,
			"componentType":5126,
			"count":24,
			"type":"VEC3"
		},
		{
			"bufferView":15,
			"componentType":5126,
			"count":24,
			"type":"VEC2"
		},
		{
			"bufferView":16,
			"componentType":5126,
			"count":24,
			"max":[
				5.378944396972656,
				-0.24048489332199097,
				5.378944396972656
			],
			"min":[
				-5.378944396972656,
				-0.7177802920341492,
				-5.378944396972656
			],
			"type":"VEC3"
		},
		{
			"bufferView":17,
			"componentType":5126,
			"count":24,
			"type":"VEC3"
		},
		{
			"bufferView":18,
			"componentType":5126,
			"count":24,
			"type":"VEC2"
		},
		{
			"bufferView":19,
			"componentType":5126,
			"count":24,
			"max":[
				5.378944396972656,
				0.2386476695537567,
				5.378943920135498
			],
			"min":[
				-5.3789448738098145,
				-0.2386477291584015,
				-5.3789448738098145
			],
			"type":"VEC3"
		},
		{
			"bufferView":20,
			"componentType":5126,
			"count":24,
			"type":"VEC3"
		},
		{
			"bufferView":21,
			"componentType":5126,
			"count":24,
			"type":"VEC2"
		},
		{
			"bufferView":22,
			"componentType":5126,
			"count":24,
			"max":[
				37.94721984863281,
				2.6378235816955566,
				1
			],
			"min":[
				-42.18079376220703,
				-1,
				-1
			],
			"type":"VEC3"
		},
		{
			"bufferView":23,
			"componentType":5126,
			"count":24,
			"type":"VEC3"
		},
		{
			"bufferView":24,
			"componentType":5126,
			"count":24,
			"type":"VEC2"
		},
		{
			"bufferView":25,
			"componentType":5123,
			"count":36,
			"type":"SCALAR"
		},
		{
			"bufferView":26,
			"componentType":5126,
			"count":1364,
			"max":[
				1.3607940673828125,
				0.007235527038574219,
				1.3707046508789062
			],
			"min":[
				-1.37615966796875,
				-2.338536262512207,
				-1.3662338256835938
			],
			"type":"VEC3"
		},
		{
			"bufferView":27,
			"componentType":5126,
			"count":1364,
			"type":"VEC3"
		},
		{
			"bufferView":28,
			"componentType":5126,
			"count":1364,
			"type":"VEC2"
		},
		{
			"bufferView":29,
			"componentType":5123,
			"count":1746,
			"type":"SCALAR"
		}
	],
	"bufferViews":[
		{
			"buffer":0,
			"byteLength":288,
			"byteOffset":0,
			"target":34962
		},
		{
			"buffer":0,
			"byteLength":288,
			"byteOffset":288,
			"target":34962
		},
		{
			"buffer":0,
			"byteLength":192,
			"byteOffset":576,
			"target":34962
		},
		{
			"buffer":0,
			"byteLength":72,
			"byteOffset":768,
			"target":34963
		},
		{
			"buffer":0,
			"byteLength":288,
			"byteOffset":840,
			"target":34962
		},
		{
			"buffer":0,
			"byteLength":288,
			"byteOffset":1128,
			"target":34962
		},
		{
			"buffer":0,
			"byteLength":192,
			"byteOffset":1416,
			"target":34962
		},
		{
			"buffer":0,
			"byteLength":288,
			"byteOffset":1608,
			"target":34962
		},
		{
			"buffer":0,
			"byteLength":288,
			"byteOffset":1896,
			"target":34962
		},
		{
			"buffer":0,
			"byteLength":192,
			"byteOffset":2184,
			"target":34962
		},
		{
			"buffer":0,
			"byteLength":288,
			"byteOffset":2376,
			"target":34962
		},
		{
			"buffer":0,
			"byteLength":288,
			"byteOffset":2664,
			"target":34962
		},
		{
			"buffer":0,
			"byteLength":192,
			"byteOffset":2952,
			"target":34962
		},
		{
			"buffer":0,
			"byteLength":288,
			"byteOffset":3144,
			"target":34962
		},
		{
			"buffer":0,
			"byteLength":288,
			"byteOffset":3432,
			"target":34962
		},
		{
			"buffer":0,
			"byteLength":192,
			"byteOffset":3720,
			"target":34962
		},
		{
			"buffer":0,
			"byteLength":288,
			"byteOffset":3912,
			"target":34962
		},
		{
			"buffer":0,
			"byteLength":288,
			"byteOffset":4200,
			"target":34962
		},
		{
			"buffer":0,
			"byteLength":192,
			"byteOffset":4488,
			"target":34962
		},
		{
			"buffer":0,
			"byteLength":288,
			"byteOffset":4680,
			"target":34962
		},
		{
			"buffer":0,
			"byteLength":288,
			"byteOffset":4968,
			"target":34962
		},
		{
			"buffer":0,
			"byteLength":192,
			"byteOffset":5256,
			"target":34962
		},
		{
			"buffer":0,
			"byteLength":288,
			"byteOffset":5448,
			"target":34962
		},
		{
			"buffer":0,
			"byteLength":288,
			"byteOffset":5736,
			"target":34962
		},
		{
			"buffer":0,
			"byteLength":192,
			"byteOffset":6024,
			"target":34962
		},
		{
			"buffer":0,
			"byteLength":72,
			"byteOffset":6216,
			"target":34963
		},
		{
			"buffer":0,
			"byteLength":16368,
			"byteOffset":6288,
			"target":34962
		},
		{
			"buffer":0,
			"byteLength":16368,
			"byteOffset":22656,
			"target":34962
		},
		{
			"buffer":0,
			"byteLength":10912,
			"byteOffset":39024,
			"target":34962
		},
		{
			"buffer":0,
			"byteLength":3492,
			"byteOffset":49936,
			"target":34963
		}
	],
	"samplers":[
		{
			"magFilter":9729,
			"minFilter":9987
		}
	],
	"buffers":[
		{
			"byteLength":53428,
			"uri":"room.bin"
		}
	]
}
